<svg width="16" height="16" viewBox="0 0 16 16" fill="none" xmlns="http://www.w3.org/2000/svg">
<path d="M11.0125 6.2312H14.0125V3.2312" stroke="white" stroke-width="1.5" stroke-linecap="round" stroke-linejoin="round"/>
<path d="M4.11255 4.11253C4.62279 3.60154 5.22878 3.19615 5.89583 2.91956C6.56288 2.64298 7.27792 2.50061 8.00005 2.50061C8.72217 2.50061 9.43721 2.64298 10.1043 2.91956C10.7713 3.19615 11.3773 3.60154 11.8875 4.11253L14.0125 6.23128" stroke="white" stroke-width="1.5" stroke-linecap="round" stroke-linejoin="round"/>
<path d="M4.98755 9.7688H1.98755V12.7688" stroke="white" stroke-width="1.5" stroke-linecap="round" stroke-linejoin="round"/>
<path d="M11.8875 11.8875C11.3773 12.3985 10.7713 12.8039 10.1043 13.0805C9.43721 13.3571 8.72217 13.4995 8.00005 13.4995C7.27792 13.4995 6.56289 13.3571 5.89583 13.0805C5.22878 12.8039 4.6228 12.3985 4.11255 11.8875L1.98755 9.7688" stroke="white" stroke-width="1.5" stroke-linecap="round" stroke-linejoin="round"/>
</svg>
