<svg width="20" height="20" viewBox="0 0 20 20" fill="none" xmlns="http://www.w3.org/2000/svg">
<mask id="mask0_0_946" style="mask-type:luminance" maskUnits="userSpaceOnUse" x="0" y="0" width="20" height="20">
<path d="M19.999 0.114258H0V19.6255H19.999V0.114258Z" fill="white"/>
</mask>
<g mask="url(#mask0_0_946)">
<path d="M12.4127 18.289H7.6012C3.24722 18.289 1.38672 16.4739 1.38672 12.2261V7.53191C1.38672 3.28168 3.24522 1.46899 7.6012 1.46899H12.4127C16.7667 1.46899 18.6272 3.28412 18.6272 7.53191V12.2261C18.6272 16.4739 16.7667 18.289 12.4127 18.289ZM7.6012 2.64265C3.90472 2.64265 2.58972 3.92558 2.58972 7.53191V12.2261C2.58972 15.8324 3.90472 17.1153 7.6012 17.1153H12.4127C16.1092 17.1153 17.4247 15.8324 17.4247 12.2261V7.53191C17.4247 3.92558 16.1097 2.64216 12.4127 2.64216L7.6012 2.64265Z" fill="white"/>
<path d="M10.006 13.2027C9.21564 13.2043 8.44919 12.9384 7.83729 12.4503C7.22539 11.9621 6.80604 11.2821 6.65064 10.526C6.49524 9.76992 6.61349 8.98465 6.98524 8.30416C7.35694 7.62363 7.95909 7.08997 8.68904 6.79416C9.41894 6.49841 10.2314 6.45875 10.988 6.68207C11.7445 6.90538 12.3982 7.37782 12.8376 8.0188C13.277 8.65977 13.4749 9.42958 13.3976 10.197C13.3203 10.9644 12.9725 11.6819 12.4135 12.2271C11.7753 12.8508 10.9094 13.2017 10.006 13.2027ZM10.006 7.7266C9.45909 7.72695 8.93174 7.92573 8.52669 8.28431C8.12159 8.6429 7.86769 9.13568 7.81439 9.66675C7.76104 10.1979 7.91209 10.7293 8.23814 11.1578C8.56419 11.5863 9.04189 11.8811 9.57844 11.985C10.1149 12.0889 10.6719 11.9944 11.1409 11.7199C11.61 11.4453 11.9576 11.0104 12.1162 10.4997C12.2748 9.98899 12.233 9.43895 11.999 8.9566C11.765 8.47431 11.3554 8.09412 10.85 7.89002C10.5824 7.78202 10.2956 7.72651 10.006 7.7266Z" fill="white"/>
<path d="M14.0164 6.35727C13.9117 6.35615 13.8083 6.33493 13.7119 6.29484C13.6148 6.25513 13.5254 6.19952 13.4474 6.13045C13.3742 6.05469 13.3146 5.96747 13.2709 5.8724C13.1961 5.68127 13.1961 5.46991 13.2709 5.27874C13.3155 5.18425 13.3751 5.09718 13.4474 5.02069C13.4856 4.98713 13.5258 4.95586 13.5679 4.92703C13.6127 4.89747 13.6613 4.87385 13.7124 4.85681C13.7593 4.8326 13.81 4.81611 13.8624 4.80803C13.9912 4.78329 14.1243 4.7896 14.25 4.82641C14.3757 4.86322 14.4904 4.92942 14.5839 5.01923C14.6565 5.09401 14.7137 5.18157 14.7524 5.27727C14.7947 5.37084 14.8165 5.47191 14.8165 5.5741C14.8165 5.67635 14.7947 5.77742 14.7524 5.87093C14.7117 5.96571 14.6547 6.05293 14.5839 6.12898C14.506 6.19805 14.4165 6.25366 14.3194 6.29337C14.2237 6.33376 14.1207 6.35547 14.0164 6.35727Z" fill="white"/>
</g>
</svg>
