<svg width="20" height="20" viewBox="0 0 20 20" fill="none" xmlns="http://www.w3.org/2000/svg">
<mask id="mask0_0_954" style="mask-type:luminance" maskUnits="userSpaceOnUse" x="0" y="0" width="20" height="20">
<path d="M20 0.116211H0V19.6284H20V0.116211Z" fill="white"/>
</mask>
<g mask="url(#mask0_0_954)">
<path d="M7.66748 18.2483C3.33648 18.2483 1.48438 16.4435 1.48438 12.2157V7.54498C1.48438 3.31962 3.33448 1.51221 7.66748 1.51221H12.4541C16.7856 1.51221 18.6357 3.31718 18.6357 7.54498V12.2157C18.6357 16.441 16.7856 18.2483 12.4541 18.2483H7.66748ZM2.68212 7.54547V12.2162C2.68212 15.8015 3.98998 17.0815 7.66748 17.0815H12.4541C16.1311 17.0815 17.4399 15.8015 17.4399 12.2162V7.54547C17.4399 3.96009 16.1316 2.68003 12.4541 2.68003H7.66748C3.99048 2.68003 2.68212 3.96009 2.68212 7.54547ZM8.55417 14.1567V14.1318C8.55417 14.1127 8.55417 14.0829 8.55417 14.042C8.56017 12.4985 8.57167 8.86157 8.55417 8.42986H10.5044V9.24157C10.6833 8.9424 10.9407 8.69508 11.25 8.52498C11.5351 8.37245 11.8546 8.29225 12.1797 8.29181H12.2246C12.2401 8.29181 12.2541 8.29181 12.2661 8.29181C13.6736 8.29181 14.5117 9.25469 14.5117 10.8708V14.1488H12.562V11.0869C12.562 10.2406 12.2207 9.79571 11.5767 9.79571C11.3543 9.79401 11.1375 9.86089 10.9565 9.98689C10.779 10.1146 10.6439 10.2908 10.5688 10.4932C10.5198 10.6418 10.4987 10.7978 10.5063 10.9537V14.1552L8.55417 14.1567ZM5.51953 14.1508V8.42986H7.47312V14.1508H5.51953ZM5.40773 6.64547C5.41713 6.36976 5.53842 6.10893 5.74463 5.9202C5.95083 5.73147 6.22517 5.6301 6.50782 5.63854C6.79077 5.62971 7.06578 5.73084 7.27248 5.91962C7.47913 6.10835 7.60068 6.36942 7.61037 6.64547C7.60092 6.92196 7.47957 7.18347 7.27292 7.37289C7.06632 7.5623 6.79122 7.66425 6.50782 7.6562C6.22493 7.66371 5.95062 7.56157 5.74463 7.3723C5.53863 7.18298 5.41747 6.92191 5.40823 6.64596L5.40773 6.64547Z" fill="white"/>
</g>
</svg>
