<svg width="20" height="20" viewBox="0 0 20 20" fill="none" xmlns="http://www.w3.org/2000/svg">
<mask id="mask0_0_960" style="mask-type:luminance" maskUnits="userSpaceOnUse" x="0" y="0" width="20" height="20">
<path d="M20 0.116211H0V19.6284H20V0.116211Z" fill="white"/>
</mask>
<g mask="url(#mask0_0_960)">
<path fill-rule="evenodd" clip-rule="evenodd" d="M6.66306 13.4591C7.12991 13.5985 7.61531 13.6693 8.10351 13.6693C8.17751 13.6693 8.25126 13.6679 8.32076 13.6665C8.69596 13.6626 9.06966 13.6242 9.43746 13.5518C9.92391 13.4398 10.3936 13.2673 10.835 13.0386C11.2776 12.8094 11.6881 12.5251 12.0557 12.1928C12.3306 11.9338 12.5752 11.6459 12.7852 11.3343C12.9938 11.0219 13.1662 10.6878 13.2988 10.3382C13.4435 9.96582 13.5488 9.58007 13.6133 9.18689C13.6776 8.79343 13.7013 8.39475 13.6846 7.9967C13.8775 7.84646 14.0559 7.6788 14.2168 7.49611C14.3779 7.3128 14.5211 7.11538 14.645 6.90636C14.3195 7.07738 13.9613 7.18055 13.5928 7.20933C13.7502 7.08641 13.8959 6.94997 14.0283 6.80158C14.1156 6.70407 14.1908 6.59714 14.2534 6.48299C14.2921 6.41558 14.3218 6.34343 14.3408 6.26841C14.3491 6.2365 14.3533 6.20377 14.354 6.17085C13.9948 6.44046 13.557 6.59148 13.104 6.60246H13.0747C12.9852 6.51548 12.8871 6.43748 12.7817 6.36938C12.6771 6.30143 12.5655 6.24416 12.4487 6.1986C12.3376 6.15533 12.2221 6.1227 12.1045 6.10109C11.9867 6.0785 11.8671 6.06704 11.7471 6.06689H11.7119C11.5867 6.07026 11.4625 6.08563 11.3403 6.11275C11.22 6.13958 11.1026 6.17816 10.9902 6.22792C10.8764 6.27704 10.7676 6.33714 10.666 6.40738C10.5634 6.47811 10.4683 6.55831 10.3813 6.64689C10.296 6.73626 10.2187 6.83309 10.1514 6.93616C10.0855 7.03885 10.0304 7.14748 9.98581 7.26055C9.94136 7.37382 9.90776 7.49094 9.88571 7.61036C9.86386 7.73089 9.85431 7.85333 9.85791 7.97572C9.86006 8.13319 9.88311 8.28963 9.92576 8.44148C9.87976 8.44685 9.83321 8.44933 9.78321 8.44933H9.73536C8.75531 8.42163 7.80891 8.09402 7.03026 7.5128C6.62176 7.23392 6.24631 6.91133 5.91111 6.55124C5.82331 6.69997 5.75741 6.85992 5.71481 7.02641C5.67281 7.19309 5.65431 7.3646 5.66016 7.53616C5.66856 7.67455 5.69166 7.81177 5.72946 7.94548C5.76786 8.07889 5.82101 8.20797 5.88766 8.33036C5.96001 8.46655 6.04461 8.59616 6.14061 8.71767C6.23651 8.83899 6.34361 8.95138 6.46091 9.05329C6.43141 9.05768 6.40151 9.06207 6.37301 9.06207H6.37011C6.12916 9.04607 5.89746 8.96572 5.70016 8.82987C5.69641 8.99665 5.71446 9.16319 5.75436 9.32538C5.79366 9.48738 5.85351 9.64402 5.93211 9.79177C5.99446 9.90324 6.06921 10.0077 6.15476 10.1034C6.23991 10.1984 6.33516 10.284 6.43946 10.3587C6.54931 10.4388 6.66751 10.5076 6.79196 10.564C6.91581 10.6208 7.04556 10.6649 7.17871 10.6957C7.06266 10.744 6.93766 10.7691 6.81151 10.7694H6.76171C6.64046 10.7692 6.51916 10.7584 6.39991 10.7371C6.45551 10.918 6.53986 11.0891 6.64991 11.2445C6.76036 11.399 6.89576 11.5353 7.05026 11.6483C7.20481 11.7623 7.37676 11.8516 7.56006 11.9128C7.74381 11.9738 7.93626 12.0053 8.13036 12.0064C7.84816 12.295 7.50591 12.5213 7.12646 12.6699C6.77931 12.8075 6.40836 12.8782 6.03366 12.8782H5.84961C5.68236 12.8779 5.51531 12.8667 5.34961 12.8449C5.75361 13.1124 6.19631 13.3194 6.66306 13.4591ZM9.37206 11.172C9.38261 11.1461 9.39316 11.1201 9.40381 11.0937L9.41356 11.0762C9.08601 11.1798 8.74686 11.2436 8.40331 11.2664H8.36816C8.18821 11.2743 8.00886 11.242 7.84371 11.1718C7.79276 11.1508 7.74836 11.1172 7.71481 11.0743C7.74191 11.0431 7.77576 11.0186 7.81446 11.0029C7.87861 10.9549 7.94696 10.9123 8.01856 10.8756C8.04416 10.8636 8.06866 10.8491 8.09131 10.8323L8.79831 10.3932C8.75731 10.3839 8.23906 10.3055 8.08106 10.2816C7.60396 10.2254 7.16391 10.0031 6.84131 9.65563C6.97966 9.62567 7.11286 9.57646 7.23681 9.50938L7.37206 9.44494C7.45626 9.40787 7.53766 9.3646 7.61521 9.31563C7.62571 9.30968 7.63636 9.30343 7.64786 9.2967C7.68231 9.27655 7.72401 9.25211 7.79001 9.21811L7.77146 9.20641L7.76656 9.20343C7.76331 9.20085 7.76006 9.1986 7.75631 9.19665L7.73681 9.18499C7.22956 8.96772 6.82976 8.5648 6.62401 8.06299C7.19971 8.47724 7.83471 8.80709 8.50826 9.04207C8.94936 9.16075 9.40346 9.22738 9.86081 9.2406C10.0074 9.23909 10.1528 9.21875 10.2939 9.18011C10.3647 9.16655 10.4314 9.1366 10.4878 9.0928L10.4907 9.08982L10.4918 9.08821C10.4972 9.07982 10.5008 9.07421 10.5083 9.07421L10.5122 9.07124L10.5181 9.06543C10.5844 9.01402 10.6415 8.95216 10.687 8.8825C10.7144 8.82192 10.7287 8.75645 10.729 8.69026C10.7175 8.65709 10.7073 8.62543 10.6973 8.59275C10.6315 8.43846 10.6022 8.27177 10.6113 8.10494C10.6167 7.89202 10.6619 7.68187 10.7451 7.48494C10.787 7.38763 10.8419 7.29616 10.9082 7.2128C10.9561 7.14099 11.0198 7.08046 11.0947 7.03572C11.2052 6.95816 11.3375 6.91587 11.4736 6.9147C11.52 6.91002 11.5667 6.90777 11.6133 6.90792C11.7423 6.90485 11.8708 6.92509 11.9922 6.96782C12.0039 6.9725 12.0149 6.97797 12.0259 6.98402L12.0537 6.99714C12.2715 7.09802 12.4648 7.24289 12.6211 7.42207H12.7471L12.7734 7.72646L12.8823 7.90831L12.8257 8.03953V8.17031C12.8976 8.72982 12.8399 9.29792 12.6567 9.83275C12.4719 10.4202 12.155 10.9601 11.7295 11.4132C11.5534 11.5968 11.354 11.7575 11.1357 11.8912C10.9254 12.0287 10.7066 12.1539 10.481 12.2659C10.279 12.3668 10.0721 12.4571 9.86036 12.5366C9.82036 12.5537 9.79051 12.566 9.77001 12.5733C9.50106 12.6704 9.22156 12.737 8.93701 12.7718C8.88251 12.7787 8.80181 12.7947 8.71581 12.8123C8.56801 12.8469 8.41726 12.8692 8.26561 12.8791H8.22556C8.34696 12.8211 8.45561 12.7407 8.54586 12.6425C8.66761 12.4974 8.77916 12.3446 8.87986 12.1849C8.97886 12.0385 9.06676 11.885 9.14256 11.726C9.20806 11.5874 9.25896 11.4581 9.31246 11.3206C9.33191 11.2708 9.35186 11.2217 9.37206 11.172Z" fill="white"/>
<path fill-rule="evenodd" clip-rule="evenodd" d="M12.3909 18.2395H7.60435C3.27287 18.2395 1.42188 16.4346 1.42188 12.2063V7.53657C1.42188 3.31021 3.27187 1.50342 7.60435 1.50342H12.3909C16.7224 1.50342 18.5734 3.30826 18.5734 7.53657V12.2063C18.5739 16.4326 16.7228 18.2395 12.3909 18.2395ZM12.1279 17.3114H7.8721C4.02078 17.3114 2.375 15.7069 2.375 11.948V7.79667C2.375 4.03951 4.01989 2.4333 7.8721 2.4333H12.1279C15.9792 2.4333 17.625 4.03777 17.625 7.79667V11.948C17.6255 15.7052 15.9797 17.3114 12.1279 17.3114Z" fill="white"/>
</g>
</svg>
